HIERARCHY
ROOT Joint1
{
	OFFSET 0.000000 0.000000 0.000000
	CHANNELS 6 Xposition Yposition Zposition Xrotation Yrotation Zrotation
	JOINT Joint2
	{
		OFFSET -0.000000 0.000000 1.456275
		CHANNELS 6 Xposition Yposition Zposition Xrotation Yrotation Zrotation
		JOINT Joint3
		{
			OFFSET -0.000000 0.000002 1.471446
			CHANNELS 6 Xposition Yposition Zposition Xrotation Yrotation Zrotation
			JOINT Joint4
			{
				OFFSET 0.625745 0.000000 0.917755
				CHANNELS 6 Xposition Yposition Zposition Xrotation Yrotation Zrotation
				JOINT Joint5
				{
					OFFSET -0.629534 0.000001 0.940221
					CHANNELS 6 Xposition Yposition Zposition Xrotation Yrotation Zrotation
					JOINT Joint6
					{
						OFFSET -0.000001 0.113772 1.960660
						CHANNELS 6 Xposition Yposition Zposition Xrotation Yrotation Zrotation
						JOINT Joint7
						{
							OFFSET -0.669733 -0.113771 0.388340
							CHANNELS 6 Xposition Yposition Zposition Xrotation Yrotation Zrotation
							End Site
							{
								OFFSET 0.005509 0.005509 0.438980
							}
						}
					}
				}
			}
		}
	}
}
MOTION
Frames: 24
Frame Time: 0.041667
0.000000 0.000000 0.000000 -0.000000 1.019410 -9.205724 -0.000000 -0.000000 1.456275 0.000001 -54.984054 -0.000001 -0.000000 0.000002 1.471446 -0.000002 -1.133459 63.109322 0.625745 0.000001 0.917755 -0.000012 72.146387 0.000003 -0.629533 0.000001 0.940220 -0.000000 1.709739 64.025695 -0.000000 0.113772 1.960660 -88.303875 111.918530 0.000004 -0.669733 -0.113770 0.388340 -0.465306 3.537427 121.330579 
0.000000 0.000000 0.000000 -0.000000 1.019410 -8.860089 -0.000000 -0.000000 1.456275 0.000001 -54.607909 0.000001 -0.000000 0.000002 1.471446 -0.000002 -1.133455 60.735941 0.625745 0.000000 0.917755 -0.000002 74.509776 0.000007 -0.629533 0.000001 0.940220 -0.000002 1.709738 61.618675 -0.000000 0.113772 1.960661 -88.303862 111.093744 -0.000003 -0.669733 -0.113771 0.388340 -0.474159 3.539536 121.842993 
0.000000 0.000000 0.000000 -0.000000 1.019410 -8.498376 -0.000000 -0.000000 1.456275 -0.000000 -54.214271 0.000001 -0.000000 0.000002 1.471446 -0.000002 -1.133455 58.252136 0.625745 0.000001 0.917755 -0.000016 76.983110 0.000004 -0.629533 0.000001 0.940221 -0.000002 1.709739 59.099667 -0.000001 0.113772 1.960661 -88.303868 110.230599 0.000002 -0.669733 -0.113771 0.388340 -0.483448 3.541656 122.379231 
0.000000 0.000000 0.000000 -0.000000 1.019410 -8.208997 -0.000000 0.000000 1.456275 0.000000 -53.899342 0.000000 -0.000000 0.000002 1.471446 -0.000001 -1.133456 56.265032 0.625745 0.000001 0.917755 -0.000017 78.961836 0.000014 -0.629534 0.000001 0.940221 -0.000004 1.709735 57.084409 -0.000001 0.113772 1.960660 -88.303862 109.540067 -0.000005 -0.669733 -0.113771 0.388340 -0.490886 3.543291 122.808263 
0.000000 0.000000 0.000000 -0.000000 1.019410 -7.983927 -0.000000 0.000000 1.456275 -0.000000 -53.654404 -0.000001 -0.000000 0.000002 1.471446 -0.000002 -1.133455 54.719531 0.625745 0.000000 0.917755 -0.000001 80.500828 0.000011 -0.629533 0.000001 0.940221 -0.000004 1.709740 55.517007 -0.000000 0.113772 1.960661 -88.303868 109.002982 -0.000006 -0.669734 -0.113771 0.388340 -0.496683 3.544524 123.141918 
0.000000 0.000000 0.000000 -0.000000 1.019410 -7.791030 -0.000000 -0.000000 1.456275 -0.000000 -53.444482 0.000002 -0.000000 0.000002 1.471446 -0.000002 -1.133459 53.394949 0.625745 0.000000 0.917755 -0.000022 81.819833 0.000013 -0.629533 0.000001 0.940221 -0.000003 1.709738 54.173645 -0.000000 0.113772 1.960660 -88.303868 108.542675 0.000009 -0.669733 -0.113771 0.388340 -0.501653 3.545552 123.427911 
0.000000 0.000000 0.000000 -0.000000 1.019410 -7.598157 -0.000000 -0.000000 1.456275 -0.000000 -53.234580 0.000001 -0.000000 0.000002 1.471446 -0.000001 -1.133456 52.070535 0.625745 0.000000 0.917755 -0.000027 83.138661 0.000030 -0.629534 0.000001 0.940221 0.000004 1.709738 52.830461 -0.000001 0.113772 1.960659 -88.303868 108.082423 0.000020 -0.669733 -0.113770 0.388340 -0.506634 3.546557 123.713850 
0.000000 0.000000 0.000000 -0.000000 1.019410 -7.373113 -0.000000 0.000000 1.456275 -0.000001 -52.989673 0.000001 -0.000000 0.000002 1.471446 -0.000002 -1.133457 50.525197 0.625745 0.000000 0.917755 -0.000007 84.677489 0.000066 -0.629534 0.000001 0.940221 0.000003 1.709736 51.263227 -0.000001 0.113772 1.960660 -88.303862 107.545406 0.000025 -0.669733 -0.113771 0.388339 -0.512450 3.547696 124.047491 
0.000000 0.000000 0.000000 -0.000000 1.019410 -7.083684 -0.000000 0.000000 1.456275 -0.000001 -52.674689 0.000000 -0.000000 0.000002 1.471446 -0.000001 -1.133457 48.537756 0.625745 0.000000 0.917755 -0.000040 86.656550 0.000046 -0.629534 0.000001 0.940221 0.000003 1.709736 49.247628 -0.000001 0.113772 1.960660 -88.303868 106.854744 0.000002 -0.669734 -0.113771 0.388340 -0.519940 3.549116 124.476564 
0.000000 0.000000 0.000000 -0.000000 1.019410 -6.721851 -0.000000 -0.000000 1.456275 -0.000001 -52.280918 0.000000 -0.000000 0.000002 1.471446 -0.000001 -1.133457 46.053128 0.625744 0.000000 0.917755 -0.000209 89.130704 0.000233 -0.629533 0.000001 0.940221 -0.000003 1.709737 46.727783 -0.000000 0.113772 1.960660 -88.303868 105.991313 0.000005 -0.669733 -0.113771 0.388340 -0.529310 3.550806 125.012993 
0.000000 0.000000 0.000000 -0.000000 1.019410 -6.376338 -0.000000 0.000000 1.456275 0.000000 -51.904906 -0.000001 -0.000000 0.000002 1.471446 -0.000001 -1.133456 43.680573 0.625745 0.000000 0.917755 0.000056 91.493266 -0.000103 -0.629534 0.000001 0.940221 -0.000003 1.709739 44.321603 -0.000001 0.113772 1.960661 -88.303875 105.166820 0.000012 -0.669733 -0.113771 0.388340 -0.538280 3.552341 125.525244 
0.000000 0.000000 0.000000 -0.000000 1.019410 -6.126803 -0.000000 0.000000 1.456275 0.000000 -51.633344 -0.000000 -0.000000 0.000002 1.471446 -0.000000 -1.133456 41.967076 0.625745 0.000000 0.917755 0.000088 93.199536 -0.000079 -0.629534 0.000001 0.940221 -0.000000 1.709739 42.583825 0.000000 0.113772 1.960661 -88.303862 104.571364 0.000009 -0.669733 -0.113771 0.388340 -0.544764 3.553400 125.895194 
0.000000 0.000000 0.000000 -0.000000 1.019410 -5.919892 -0.000000 -0.000000 1.456275 0.000000 -51.408167 0.000001 -0.000000 0.000002 1.471446 -0.000001 -1.133461 40.546250 0.625745 0.000000 0.917755 0.000082 94.614376 -0.000033 -0.629534 0.000001 0.940221 0.000002 1.709736 41.142867 -0.000001 0.113772 1.960660 -88.303855 104.077610 0.000020 -0.669733 -0.113771 0.388339 -0.550149 3.554245 126.201952 
0.000000 0.000000 0.000000 -0.000000 1.019410 -5.668992 -0.000000 0.000000 1.456275 0.000001 -51.135123 -0.000000 -0.000000 0.000002 1.471446 -0.000001 -1.133458 38.823379 0.625744 0.000000 0.917755 0.000037 96.329996 -0.000001 -0.629533 0.000001 0.940221 -0.000002 1.709739 39.395582 -0.000001 0.113772 1.960660 -88.303868 103.478889 0.000003 -0.669734 -0.113771 0.388340 -0.556683 3.555234 126.573924 
0.000000 0.000000 0.000000 -0.000000 1.019410 -5.321600 -0.000000 0.000000 1.456275 0.000000 -50.757062 -0.000000 -0.000000 0.000002 1.471446 -0.000001 -1.133455 36.437925 0.625745 0.000000 0.917755 0.000004 98.705393 -0.000006 -0.629534 0.000001 0.940221 0.000002 1.709736 36.976315 -0.000001 0.113772 1.960661 -88.303868 102.649909 0.000011 -0.669733 -0.113771 0.388340 -0.565738 3.556532 127.088947 
0.000000 0.000000 0.000000 -0.000000 1.019410 -4.961645 -0.000000 0.000000 1.456275 0.000000 -50.365337 -0.000000 -0.000000 0.000002 1.471446 -0.000001 -1.133460 33.966196 0.625744 0.000000 0.917755 0.000008 101.166713 -0.000005 -0.629534 0.000001 0.940220 0.000001 1.709739 34.469557 -0.000001 0.113772 1.960660 -88.303862 101.790958 0.000007 -0.669734 -0.113771 0.388340 -0.575131 3.557790 127.622604 
0.000000 0.000000 0.000000 -0.000000 1.019410 -4.680034 -0.000000 0.000000 1.456275 -0.000000 -50.058866 -0.000000 -0.000000 0.000002 1.471446 -0.000001 -1.133457 32.032429 0.625745 0.000001 0.917755 0.000006 103.092328 -0.000008 -0.629534 0.000001 0.940221 -0.000002 1.709738 32.508395 -0.000001 0.113772 1.960660 -88.303862 101.118949 0.000012 -0.669733 -0.113771 0.388340 -0.582487 3.558714 128.040106 
0.000000 0.000000 0.000000 -0.000000 1.019410 -4.459162 -0.000000 0.000000 1.456275 0.000000 -49.818498 -0.000000 -0.000000 0.000002 1.471446 -0.000001 -1.133452 30.515755 0.625744 0.000000 0.917755 0.000009 104.602612 -0.000000 -0.629534 0.000001 0.940221 0.000002 1.709736 30.970226 -0.000001 0.113772 1.960660 -88.303868 100.591891 0.000008 -0.669733 -0.113771 0.388339 -0.588268 3.559400 128.367559 
0.000000 0.000000 0.000000 -0.000000 1.019410 -4.254299 -0.000000 -0.000000 1.456275 0.000000 -49.595551 0.000001 -0.000000 0.000002 1.471445 -0.000001 -1.133456 29.109003 0.625744 0.000000 0.917755 -0.000001 106.003436 -0.000010 -0.629533 0.000001 0.940221 -0.000003 1.709738 29.543539 -0.000001 0.113772 1.960661 -88.303875 100.103034 0.000009 -0.669733 -0.113771 0.388340 -0.593624 3.560007 128.671297 
0.000000 0.000000 0.000000 -0.000000 1.019410 -4.030287 -0.000000 -0.000000 1.456275 0.000000 -49.351761 -0.000000 -0.000000 0.000002 1.471446 -0.000001 -1.133458 27.570762 0.625744 0.000000 0.917755 0.000005 107.535202 -0.000003 -0.629534 0.000001 0.940221 -0.000002 1.709737 27.983502 -0.000001 0.113772 1.960660 -88.303868 99.568476 0.000009 -0.669733 -0.113771 0.388340 -0.599491 3.560641 129.003408 
0.000000 0.000000 0.000000 -0.000000 1.019410 -3.790267 -0.000000 0.000000 1.456275 -0.000000 -49.090554 -0.000001 -0.000000 0.000002 1.471446 -0.000001 -1.133462 25.922595 0.625744 0.000000 0.917755 0.000012 109.176414 -0.000005 -0.629534 0.000001 0.940221 -0.000002 1.709737 26.311977 -0.000000 0.113772 1.960660 -88.303855 98.995724 0.000012 -0.669733 -0.113771 0.388341 -0.605777 3.561279 129.359248 
0.000000 0.000000 0.000000 -0.000000 1.019410 -3.546952 -0.000000 0.000000 1.456275 0.000000 -48.825758 0.000000 -0.000000 0.000002 1.471446 -0.000001 -1.133456 24.251819 0.625745 0.000000 0.917755 0.000004 110.840160 -0.000005 -0.629533 0.000001 0.940221 -0.000002 1.709736 24.617515 -0.000001 0.113772 1.960661 -88.303889 98.415103 0.000016 -0.669733 -0.113771 0.388340 -0.612158 3.561888 129.719991 
0.000000 0.000000 0.000000 -0.000000 1.019410 -3.309919 -0.000000 -0.000000 1.456275 -0.000000 -48.567802 0.000000 -0.000001 0.000002 1.471446 -0.000000 -1.133459 22.624160 0.625745 0.000000 0.917755 0.000004 112.460957 -0.000000 -0.629533 0.000001 0.940221 -0.000002 1.709736 22.966793 -0.000001 0.113772 1.960661 -88.303862 97.849474 0.000016 -0.669733 -0.113771 0.388340 -0.618374 3.562443 130.071418 
0.000000 0.000000 0.000000 -0.000000 1.019410 -3.076180 -0.000000 -0.000000 1.456275 0.000000 -48.313435 -0.000000 -0.000000 0.000002 1.471446 -0.000000 -1.133457 21.019122 0.625745 0.000000 0.917755 0.000008 114.059235 -0.000003 -0.629534 0.000001 0.940221 -0.000001 1.709739 21.339010 -0.000001 0.113772 1.960661 -88.303855 97.291708 0.000022 -0.669733 -0.113771 0.388339 -0.624509 3.562952 130.417941 
